# xmcd
# Track frame offsets:
# 150
# 10060
# 31198
# 42199
# 52139
# 61095
# 90146
# 113175
# 126307
# 138545
# 154377
# 174605
# 188416
# 199013
# 209676
# 219779
# 229690
# 239282
#
# Disc length: 3341 seconds
# Revision: 0
# Processed by: cddbd v1.5.2PL0 Copyright (c) Steve Scherf et al.
# Submitted via: VisiTrax 2.10.2.252 - For more info visit www.synapsa.com
#
DISCID=f10d0b12
DTITLE=Various Artist - Hots Of The Fifties CD 2
DYEAR=2000
DGENRE=50's
TTITLE0=Bill Haley and His Comets - Rock Around The Clock
TTITLE1=Chuck Berry - Johnny B. Goode
TTITLE2=Johnny and The Hurricanes - Crossfire
TTITLE3=Little Richard - Keep A Knockin'
TTITLE4=Elvis Presley - That's Alright Moma
TTITLE5=Ray Charles - What'd I Say
TTITLE6=Muddy Waters - Mannish Boy
TTITLE7=Pat Boone - I'll Be Home
TTITLE8=Dinah Washington - Unforgettable
TTITLE9=Marilyn Monroe - Diamonds Are A Girls Best Friend
TTITLE10=James Brown - Try Me
TTITLE11=Johnny Ray and The Four Lads - Cry
TTITLE12=Stonewall Jackson - Waterloo
TTITLE13=Frankie Laine - A Woman In Love
TTITLE14=The Everly Brothers - Bird Dog
TTITLE15=Buddy Holly and The Picks - Midnight Shift
TTITLE16=Les Paul and Mary Ford - How High The Moon
TTITLE17=Brook Benton - So Many Ways
EXTD=
EXTT0=
EXTT1=
EXTT2=
EXTT3=
EXTT4=
EXTT5=
EXTT6=
EXTT7=
EXTT8=
EXTT9=
EXTT10=
EXTT11=
EXTT12=
EXTT13=
EXTT14=
EXTT15=
EXTT16=
EXTT17=
PLAYORDER=
